<?xml version="1.0" encoding="utf-8"?>
<!-- Generator: Adobe Illustrator 15.0.0, SVG Export Plug-In . SVG Version: 6.00 Build 0)  -->
<!DOCTYPE svg PUBLIC "-//W3C//DTD SVG 1.1//EN" "http://www.w3.org/Graphics/SVG/1.1/DTD/svg11.dtd">
<svg version="1.1" id="Logo" xmlns="http://www.w3.org/2000/svg" xmlns:xlink="http://www.w3.org/1999/xlink" x="0px" y="0px"
	 width="200px" height="54px" viewBox="0 0 200 54" enable-background="new 0 0 200 54" xml:space="preserve">
<g>
	<path fill="#1A171B" d="M190.318,34.569l-2.348-26.821l-0.197-2.263L163.242,7.63l-2.043,0.178l-4.082,0.359
		c0,0,0.922,10.548,2.309,26.381l6.17,0.004l-1.816-20.796l6.139-0.536l1.867,21.338l6.172,0.004l-1.914-21.879l6.098-0.533
		l1.961,22.418L190.318,34.569z M152.268,34.544l-0.221-2.543l-0.129-1.48l-1.904-21.734l-6.125,0.537l1.695,19.353l-4.219,0.369
		l-2.088,0.184l-0.441,0.038l-1.693-19.353l-6.127,0.535l1.902,21.733l0.131,1.482l0.074,0.864L152.268,34.544z M126.281,34.524
		l-2.053-23.481l-30.657,2.683c0,0,0.687,7.846,1.819,20.777l6.172,0.005l-1.329-15.192l6.142-0.537l1.375,15.731l6.174,0.007
		L112.5,18.241l6.096-0.532l1.469,16.811L126.281,34.524z M88.865,34.499l-1.77-20.206l-6.123,0.534l1.719,19.666L88.865,34.499z
		 M80.735,12.144l6.128-0.537l-0.365-4.172l-6.126,0.536L80.735,12.144z M76.481,34.489l-1.341-15.332l-0.131-1.481l-0.2-2.31
		l-2.309,0.203l-2.607,0.227l-7.957,0.697l-2.044,0.179l-4.082,0.356l1.525,17.447l6.173,0.002l-1.036-11.859l6.701-0.586
		l1.09,12.451L76.481,34.489z M51.127,34.47l-1.479-16.902l-6.125,0.537l1.432,16.361L51.127,34.47z M43.288,15.419l6.126-0.535
		l-0.365-4.173l-6.127,0.536L43.288,15.419z M38.744,34.462l-1.187-13.555l-0.196-2.264l-24.53,2.146l-2.044,0.178l-4.084,0.357
		c0,0,0.492,5.605,1.148,13.114l6.172,0.005l-0.657-7.529l6.141-0.537l0.704,8.07l6.174,0.006l-0.755-8.613l6.098-0.531l0.8,9.148
		L38.744,34.462z"/>
	<path fill="#1A171B" d="M7.352,44.682h1.182l0.839-3.952c0.165-0.767,0.704-1.148,1.175-1.148c0.493,0,0.66,0.295,0.497,1.062
		l-0.857,4.039h1.181l0.84-3.952c0.162-0.767,0.704-1.148,1.186-1.148c0.48,0,0.648,0.295,0.486,1.062l-0.858,4.039h1.182
		l0.952-4.476c0.241-1.139-0.27-1.566-1.104-1.566c-0.71,0-1.217,0.328-1.678,0.897c-0.07-0.492-0.334-0.897-1.178-0.897
		c-0.559,0-1.182,0.318-1.59,0.844H9.572l0.148-0.691H8.603L7.352,44.682z M15.67,44.682h1.182l1.25-5.89H16.92L15.67,44.682z
		 M17.097,37.96h1.182l0.251-1.182h-1.183L17.097,37.96z M18.262,44.682h1.182l0.84-3.952c0.163-0.767,0.703-1.148,1.186-1.148
		c0.592,0,0.76,0.295,0.595,1.062l-0.858,4.039h1.184l0.943-4.442c0.254-1.194-0.229-1.6-1.127-1.6
		c-0.656,0-1.282,0.318-1.689,0.844h-0.033l0.146-0.691h-1.115L18.262,44.682z M23.799,44.682h1.184l1.25-5.89H25.05L23.799,44.682z
		 M25.229,37.96h1.182l0.25-1.182h-1.182L25.229,37.96z M26.447,44.682h1.182l0.842-3.952c0.16-0.767,0.703-1.148,1.172-1.148
		c0.494,0,0.66,0.295,0.498,1.062l-0.858,4.039h1.181l0.842-3.952c0.162-0.767,0.703-1.148,1.184-1.148
		c0.483,0,0.648,0.295,0.486,1.062l-0.857,4.039h1.182l0.95-4.476c0.243-1.139-0.269-1.566-1.101-1.566
		c-0.711,0-1.219,0.328-1.677,0.897c-0.072-0.492-0.337-0.897-1.179-0.897c-0.56,0-1.185,0.318-1.592,0.844h-0.033l0.148-0.691
		h-1.117L26.447,44.682z M37.72,44.682h1.116l1.251-5.89h-1.181l-0.876,4.115c-0.139,0.657-0.669,0.986-1.172,0.986
		s-0.753-0.221-0.612-0.875l0.897-4.227h-1.183l-0.875,4.115c-0.32,1.521,0.183,1.928,1.058,1.928c0.657,0,1.284-0.318,1.689-0.843
		h0.032L37.72,44.682z M40.247,44.682h1.183l0.84-3.952c0.163-0.767,0.703-1.148,1.174-1.148c0.492,0,0.66,0.295,0.496,1.062
		l-0.858,4.039h1.183l0.841-3.952c0.163-0.767,0.703-1.148,1.185-1.148c0.482,0,0.648,0.295,0.486,1.062l-0.859,4.039h1.183
		l0.951-4.476c0.241-1.139-0.271-1.566-1.101-1.566c-0.713,0-1.219,0.328-1.68,0.897c-0.07-0.492-0.334-0.897-1.178-0.897
		c-0.559,0-1.184,0.318-1.59,0.844h-0.034l0.147-0.691h-1.116L40.247,44.682z M48.986,42.077h2.869l0.236-1.116h-2.869
		L48.986,42.077z M52.58,44.682h1.117l0.152-0.724h0.023c0.072,0.385,0.262,0.877,1.105,0.877c1.378,0,2.17-1.15,2.6-3.175
		c0.557-2.615-0.277-3.021-1.174-3.021c-0.635,0-1.185,0.318-1.514,0.844h-0.022l0.556-2.616h-1.182L52.58,44.682z M54.31,41.803
		c0.3-1.412,0.637-2.222,1.544-2.222c0.678,0,0.803,0.546,0.465,2.133c-0.282,1.336-0.637,2.18-1.459,2.18
		C54.051,43.894,54.041,43.061,54.31,41.803 M58.461,41.737c-0.389,1.827-0.102,3.098,1.529,3.098c1.643,0,2.469-1.271,2.857-3.098
		c0.389-1.828,0.178-3.098-1.541-3.098C59.6,38.64,58.848,39.909,58.461,41.737 M59.641,41.737c0.278-1.303,0.627-2.221,1.48-2.221
		c0.863,0,0.822,0.918,0.544,2.221c-0.316,1.498-0.625,2.221-1.488,2.221C59.322,43.958,59.322,43.235,59.641,41.737 M66.36,44.682
		h1.114l1.252-5.89h-1.182l-0.875,4.115c-0.14,0.657-0.668,0.986-1.174,0.986c-0.502,0-0.75-0.221-0.612-0.875l0.898-4.227h-1.181
		l-0.877,4.115c-0.323,1.521,0.184,1.928,1.059,1.928c0.656,0,1.283-0.318,1.689-0.843h0.033L66.36,44.682z M68.887,44.682h1.182
		l1.66-7.814h-1.182L68.887,44.682z M74.49,44.682h1.116l1.661-7.814h-1.182l-0.557,2.616h-0.021
		c-0.107-0.525-0.523-0.844-1.157-0.844c-0.897,0-1.902,0.405-2.458,3.021c-0.43,2.024-0.127,3.175,1.252,3.175
		c0.842,0,1.242-0.492,1.477-0.877h0.021L74.49,44.682z M75.102,41.803c-0.268,1.258-0.631,2.091-1.44,2.091
		c-0.821,0-0.816-0.844-0.532-2.18c0.336-1.587,0.693-2.133,1.373-2.133C75.41,39.581,75.402,40.391,75.102,41.803 M81.648,41.89
		l0.134-0.623c0.349-1.643,0.12-2.627-1.521-2.627c-1.849,0-2.526,1.641-2.854,3.186c-0.579,2.724,0.553,3.01,1.516,3.01
		c1.281,0,2.243-0.82,2.521-2.123h-1.117c-0.073,0.349-0.378,1.313-1.219,1.313c-0.886,0-0.771-1.007-0.604-1.796l0.073-0.34H81.648
		z M78.746,41.08l0.025-0.119c0.164-0.767,0.551-1.512,1.307-1.512c0.668,0,0.787,0.569,0.628,1.313L80.64,41.08H78.746z
		 M82.25,44.682h1.182l0.748-3.525c0.232-1.094,0.93-1.335,1.467-1.335c0.197,0,0.395,0.045,0.477,0.065l0.258-1.203
		c-0.072-0.022-0.145-0.044-0.275-0.044c-0.669,0-1.194,0.415-1.597,1.072h-0.022l0.197-0.92H83.5L82.25,44.682z M85.969,44.682
		h1.183l1.251-5.89h-1.182L85.969,44.682z M87.398,37.96h1.182l0.252-1.182H87.65L87.398,37.96z M88.562,44.682h1.183l0.84-3.952
		c0.163-0.767,0.704-1.148,1.187-1.148c0.59,0,0.756,0.295,0.594,1.062l-0.858,4.039h1.181l0.943-4.442
		c0.256-1.194-0.228-1.6-1.124-1.6c-0.657,0-1.282,0.318-1.69,0.844h-0.031l0.146-0.691h-1.117L88.562,44.682z M94.004,45.185
		c-0.102,0.48-0.123,1.51,1.627,1.51c1.587,0,2.386-0.864,2.689-2.298l1.193-5.604h-1.119l-0.153,0.725h-0.022
		c-0.018-0.43-0.416-0.877-1.105-0.877c-1.675,0-2.241,1.74-2.514,3.031c-0.344,1.607-0.248,2.967,1.13,2.967
		c0.567,0,1.18-0.295,1.506-0.811h0.023l-0.202,0.953c-0.145,0.678-0.617,1.104-1.229,1.104c-0.526,0-0.784-0.34-0.705-0.699H94.004
		z M95.807,41.55c0.232-1.093,0.561-1.969,1.414-1.969c0.819,0,0.716,1.062,0.511,2.024c-0.199,0.931-0.544,2.09-1.462,2.09
		C95.393,43.695,95.592,42.558,95.807,41.55 M99.454,44.682h1.247l0.308-1.446h-1.248L99.454,44.682z M105.492,42.536
		c-0.189,0.885-0.546,1.432-1.2,1.422c-0.854,0-0.81-0.92-0.535-2.221c0.276-1.303,0.625-2.221,1.479-2.221
		c0.693-0.024,0.695,0.689,0.578,1.235h1.182c0.157-0.733,0.193-2.134-1.574-2.112c-1.707,0-2.459,1.27-2.847,3.098
		c-0.39,1.827-0.177,3.098,1.53,3.098c1.456,0,2.125-0.887,2.503-2.299H105.492z M107.193,44.682h1.184l0.838-3.952
		c0.162-0.767,0.703-1.148,1.186-1.148c0.592,0,0.758,0.295,0.594,1.062l-0.857,4.039h1.182l0.943-4.442
		c0.256-1.194-0.229-1.6-1.125-1.6c-0.602,0-1.182,0.305-1.617,0.81l-0.029-0.021l0.545-2.562h-1.182L107.193,44.682z"/>
	<rect fill="none" width="200" height="53.827"/>
</g>
</svg>
