<?xml version="1.0" encoding="UTF-8" standalone="no"?>
<!-- Generator: Adobe Illustrator 15.0.0, SVG Export Plug-In . SVG Version: 6.00 Build 0)  -->

<svg
   xmlns:dc="http://purl.org/dc/elements/1.1/"
   xmlns:cc="http://creativecommons.org/ns#"
   xmlns:rdf="http://www.w3.org/1999/02/22-rdf-syntax-ns#"
   xmlns:svg="http://www.w3.org/2000/svg"
   xmlns="http://www.w3.org/2000/svg"
   xmlns:xlink="http://www.w3.org/1999/xlink"
   xmlns:sodipodi="http://sodipodi.sourceforge.net/DTD/sodipodi-0.dtd"
   xmlns:inkscape="http://www.inkscape.org/namespaces/inkscape"
   version="1.1"
   id="Layer_1"
   x="0px"
   y="0px"
   width="260.787px"
   height="340.158px"
   viewBox="0 0 260.787 340.158"
   enable-background="new 0 0 260.787 340.158"
   xml:space="preserve"
   inkscape:version="0.48.3.1 r9886"
   sodipodi:docname="Sektoren_6.svg"><metadata
   id="metadata157"><rdf:RDF><cc:Work
       rdf:about=""><dc:format>image/svg+xml</dc:format><dc:type
         rdf:resource="http://purl.org/dc/dcmitype/StillImage" /></cc:Work></rdf:RDF></metadata><defs
   id="defs155" /><sodipodi:namedview
   pagecolor="#ffffff"
   bordercolor="#666666"
   borderopacity="1"
   objecttolerance="10"
   gridtolerance="10"
   guidetolerance="10"
   inkscape:pageopacity="0"
   inkscape:pageshadow="2"
   inkscape:window-width="1008"
   inkscape:window-height="749"
   id="namedview153"
   showgrid="false"
   inkscape:zoom="0.69379526"
   inkscape:cx="130.39349"
   inkscape:cy="170.07899"
   inkscape:window-x="0"
   inkscape:window-y="17"
   inkscape:window-maximized="0"
   inkscape:current-layer="Layer_1" />

<polyline
   fill="#A57820"
   stroke="#231F20"
   stroke-linecap="round"
   points="2.952,232.207 2.952,130.612 94.177,129.955   113.708,145.686 113.708,231.334 "
   id="polyline5" />
<path
   fill="none"
   stroke="#231F20"
   d="M2.952,114.91"
   id="path7" />
<path
   fill="none"
   stroke="#231F20"
   d="M2.952,140.13"
   id="path9" />
<line
   fill="none"
   stroke="#231F20"
   x1="3.016"
   y1="116.427"
   x2="5.791"
   y2="116.425"
   id="line11" />
<line
   fill="none"
   stroke="#231F20"
   stroke-linecap="round"
   x1="5.717"
   y1="116.425"
   x2="5.504"
   y2="86.625"
   id="line13" />
<line
   fill="none"
   stroke="#231F20"
   x1="5.504"
   y1="86.625"
   x2="8.695"
   y2="82.124"
   id="line15" />
<line
   fill="none"
   stroke="#231F20"
   stroke-linecap="round"
   x1="8.695"
   y1="82.124"
   x2="8.695"
   y2="45.557"
   id="line17" />
<line
   fill="none"
   stroke="#231F20"
   x1="8.695"
   y1="45.557"
   x2="15.501"
   y2="45.557"
   id="line19" />
<line
   fill="none"
   stroke="#231F20"
   stroke-linecap="round"
   x1="15.501"
   y1="45.557"
   x2="15.501"
   y2="2.229"
   id="line21" />
<line
   fill="none"
   stroke="#231F20"
   stroke-linecap="round"
   x1="61.866"
   y1="2.229"
   x2="61.866"
   y2="5.79"
   id="line23" />
<line
   fill="none"
   stroke="#231F20"
   x1="61.866"
   y1="6.084"
   x2="125.163"
   y2="6.084"
   id="line25" />
<line
   fill="none"
   stroke="#231F20"
   stroke-linecap="round"
   x1="125.163"
   y1="6.084"
   x2="88.557"
   y2="76.388"
   id="line27" />
<line
   fill="none"
   stroke="#FFFF00"
   stroke-linecap="round"
   stroke-linejoin="bevel"
   stroke-miterlimit="10"
   x1="88.557"
   y1="76.388"
   x2="118.703"
   y2="99.414"
   id="line29" />
<line
   fill="none"
   stroke="#FFFF00"
   stroke-linecap="round"
   stroke-linejoin="bevel"
   stroke-miterlimit="10"
   x1="118.703"
   y1="99.414"
   x2="153.048"
   y2="99.414"
   id="line31" />
<line
   fill="none"
   stroke="#231F20"
   stroke-linecap="round"
   x1="153.048"
   y1="99.414"
   x2="155.983"
   y2="39.323"
   id="line33" />
<line
   fill="none"
   stroke="#231F20"
   stroke-linecap="round"
   x1="156.413"
   y1="39.323"
   x2="162.669"
   y2="39.62"
   id="line35" />
<line
   fill="none"
   stroke="#231F20"
   stroke-linecap="round"
   x1="162.669"
   y1="39.62"
   x2="162.669"
   y2="1.792"
   id="line37" />
<line
   fill="none"
   stroke="#231F20"
   stroke-linecap="round"
   x1="209.804"
   y1="1.792"
   x2="203.745"
   y2="62.169"
   id="line39" />
<line
   fill="none"
   stroke="#FFFF00"
   stroke-linecap="round"
   stroke-linejoin="bevel"
   stroke-miterlimit="10"
   x1="203.745"
   y1="62.169"
   x2="257.588"
   y2="66.471"
   id="line41" />
<line
   fill="none"
   stroke="#231F20"
   stroke-linecap="round"
   x1="206.772"
   y1="132.407"
   x2="206.772"
   y2="231.334"
   id="line43" />
<line
   fill="none"
   stroke="#231F20"
   stroke-linecap="round"
   x1="206.772"
   y1="132.407"
   x2="257.504"
   y2="120.75"
   id="line45" />
<g
   id="g47">
	<line
   fill="none"
   stroke="#231F20"
   stroke-linecap="round"
   x1="2.952"
   y1="232.207"
   x2="256.938"
   y2="231.334"
   id="line49" />
</g>
<g
   id="g51">
	<g
   id="g53">
		<text
   transform="matrix(1 0 0 1 226.5244 183.6323)"
   fill="#231F20"
   font-family="'MyriadPro-Regular'"
   font-size="22.2648"
   id="text55">1</text>

	</g>
</g>
<g
   id="g57">
	<g
   id="g59">
		<text
   transform="matrix(1 0 0 1 159.6641 75.1519)"
   fill="#231F20"
   font-family="'MyriadPro-Regular'"
   font-size="22.2648"
   id="text61">5</text>

	</g>
</g>
<g
   id="g63">
	<g
   id="g65">
		<text
   transform="matrix(1 0 0 1 168.1826 22.1714)"
   fill="#231F20"
   font-family="'MyriadPro-Regular'"
   font-size="22.2648"
   id="text67">4</text>

	</g>
</g>
<text
   transform="matrix(1 0 0 1 20.7227 29.4917)"
   fill="#231F20"
   font-family="'MyriadPro-Regular'"
   font-size="22.2648"
   id="text69">9</text>

<g
   id="g71">
	<g
   id="g73">
		<text
   transform="matrix(1 0 0 1 55.8535 27.2778)"
   fill="#231F20"
   font-family="'MyriadPro-Regular'"
   font-size="22.2648"
   id="text75">8</text>

	</g>
</g>
<g
   id="g77">
	<text
   transform="matrix(1 0 0 1 93.7842 44.6011)"
   fill="#231F20"
   font-family="'MyriadPro-Regular'"
   font-size="22.2648"
   id="text79">7</text>

</g>
<g
   id="g81">
	<g
   id="g83">
		<text
   transform="matrix(1 0 0 1 116.2266 90.5698)"
   fill="#FFFF00"
   font-family="'MyriadPro-Regular'"
   font-size="22.2648"
   id="text85">6</text>

	</g>
</g>
<text
   transform="matrix(1 0 0 1 12.7891 88.7202)"
   fill="#231F20"
   font-family="'MyriadPro-Regular'"
   font-size="22.2648"
   id="text87">10</text>

<g
   id="g89">
	<text
   transform="matrix(1 0 0 1 127.4761 299.8335)"
   fill="#231F20"
   font-family="'MyriadPro-Regular'"
   font-size="22.2648"
   id="text91">11</text>

</g>
<polygon
   fill="none"
   stroke="#231F20"
   stroke-linecap="round"
   points="178.312,337.633 99.483,323.219 99.483,248.965   178.312,263.379 "
   id="polygon93" />
<text
   transform="matrix(1 0 0 1 38.4248 187.6147)"
   fill="#231F20"
   font-family="'MyriadPro-Regular'"
   font-size="22.2648"
   id="text95">Bar</text>

<g
   id="g97">
	<defs
   id="defs99">
		<rect
   id="SVGID_1_"
   x="5.135"
   y="205.042"
   width="105.138"
   height="23.598" />
	</defs>
	<clipPath
   id="SVGID_2_">
		<use
   xlink:href="#SVGID_1_"
   overflow="visible"
   id="use103" />
	</clipPath>
	<g
   clip-path="url(#SVGID_2_)"
   id="g105">
		<g
   id="g107">
			<defs
   id="defs109">
				<rect
   id="SVGID_3_"
   x="-52.355"
   y="60.427"
   width="220.793"
   height="312.266" />
			</defs>
			<defs
   id="defs112">
				<rect
   id="SVGID_4_"
   x="-52.355"
   y="60.427"
   width="220.793"
   height="312.266" />
			</defs>
			<clipPath
   id="SVGID_5_">
				<use
   xlink:href="#SVGID_3_"
   overflow="visible"
   id="use116" />
			</clipPath>
			<clipPath
   id="SVGID_6_"
   clip-path="url(#SVGID_5_)">
				<use
   xlink:href="#SVGID_4_"
   overflow="visible"
   id="use119" />
			</clipPath>
			<path
   clip-path="url(#SVGID_6_)"
   fill="#FFFFFF"
   d="M110.273,221.696l-1.34-15.357l-0.116-1.3l-14.046,1.229l-1.169,0.104     l-2.336,0.205c0,0,0.525,6.04,1.322,15.106l3.533,0.003l-1.041-11.91l3.516-0.307l1.069,12.221h3.534l-1.097-12.53l3.491-0.304     l1.123,12.837L110.273,221.696z M88.487,221.68l-0.126-1.454l-0.074-0.847l-1.09-12.447l-3.507,0.308l0.971,11.079l-2.414,0.212     l-1.197,0.105l-0.251,0.023l-0.968-11.083l-3.51,0.306l1.089,12.445l0.075,0.851l0.042,0.493L88.487,221.68z M73.607,221.671     l-1.178-13.443l-17.553,1.537c0,0,0.393,4.489,1.042,11.895l3.533,0.003l-0.761-8.698l3.517-0.31l0.788,9.008l3.533,0.006     l-0.813-9.32l3.488-0.309l0.845,9.632H73.607z M52.179,221.654l-1.011-11.568l-3.508,0.305l0.987,11.262L52.179,221.654z      M47.527,208.854l3.507-0.309l-0.209-2.387l-3.508,0.306L47.527,208.854z M45.091,221.65l-0.77-8.781l-0.076-0.848l-0.113-1.321     l-1.322,0.116l-1.494,0.13l-4.556,0.397l-1.168,0.106l-2.338,0.203l0.875,9.988l3.531,0.001l-0.593-6.79l3.837-0.336l0.623,7.128     L45.091,221.65z M30.572,221.639l-0.847-9.675l-3.505,0.304l0.82,9.369L30.572,221.639z M26.083,210.729l3.507-0.307l-0.21-2.391     l-3.505,0.31L26.083,210.729z M23.482,221.634l-0.681-7.763l-0.114-1.294l-14.048,1.229l-1.167,0.102l-2.337,0.204     c0,0,0.282,3.211,0.656,7.509l3.533,0.001l-0.376-4.308l3.517-0.309l0.403,4.62l3.536,0.002l-0.433-4.93l3.491-0.304l0.457,5.238     L23.482,221.634z"
   id="path121" />
			<path
   clip-path="url(#SVGID_6_)"
   fill="#FFFFFF"
   d="M5.502,227.488h0.679l0.481-2.266c0.092-0.439,0.403-0.658,0.671-0.658     c0.283,0,0.379,0.166,0.287,0.608l-0.492,2.312h0.68l0.482-2.263c0.09-0.44,0.402-0.658,0.678-0.658s0.371,0.166,0.279,0.607     l-0.492,2.312h0.678l0.544-2.565c0.14-0.65-0.154-0.895-0.631-0.895c-0.406,0-0.695,0.189-0.959,0.514     c-0.041-0.282-0.193-0.514-0.674-0.514c-0.32,0-0.68,0.183-0.91,0.482H6.783l0.086-0.395H6.222L5.502,227.488z M10.269,227.488     h0.677l0.719-3.374h-0.68L10.269,227.488z M11.084,223.637h0.677l0.143-0.676h-0.677L11.084,223.637z M11.755,227.488h0.677     l0.481-2.266c0.094-0.439,0.402-0.658,0.681-0.658c0.338,0,0.435,0.166,0.338,0.608l-0.488,2.312h0.676l0.542-2.547     c0.143-0.679-0.132-0.911-0.647-0.911c-0.374,0-0.733,0.181-0.967,0.481H13.03l0.083-0.396h-0.64L11.755,227.488z      M14.923,227.488h0.679l0.715-3.374h-0.675L14.923,227.488z M15.741,223.637h0.677l0.147-0.676h-0.679L15.741,223.637z      M16.441,227.488h0.677l0.48-2.266c0.095-0.439,0.403-0.658,0.673-0.658c0.281,0,0.377,0.166,0.287,0.608l-0.494,2.312h0.678     l0.481-2.263c0.095-0.44,0.402-0.658,0.681-0.658s0.373,0.166,0.279,0.607l-0.489,2.312h0.677l0.545-2.565     c0.14-0.65-0.155-0.895-0.63-0.895c-0.406,0-0.7,0.189-0.963,0.514c-0.039-0.282-0.189-0.514-0.674-0.514     c-0.32,0-0.677,0.183-0.91,0.482h-0.02l0.083-0.395h-0.639L16.441,227.488z M22.895,227.488h0.64l0.715-3.374h-0.676     l-0.501,2.357c-0.079,0.376-0.382,0.562-0.671,0.562c-0.288,0-0.432-0.123-0.35-0.497l0.513-2.422h-0.678l-0.5,2.357     c-0.187,0.87,0.104,1.103,0.604,1.103c0.374,0,0.733-0.183,0.967-0.484h0.02L22.895,227.488z M24.344,227.488h0.676l0.482-2.266     c0.092-0.439,0.403-0.658,0.672-0.658c0.279,0,0.378,0.166,0.283,0.608l-0.489,2.312h0.675l0.482-2.263     c0.092-0.44,0.402-0.658,0.678-0.658c0.278,0,0.372,0.166,0.28,0.607l-0.49,2.312h0.676l0.545-2.565     c0.14-0.65-0.154-0.895-0.628-0.895c-0.408,0-0.699,0.189-0.963,0.514c-0.041-0.282-0.192-0.514-0.674-0.514     c-0.321,0-0.681,0.183-0.913,0.482h-0.016l0.083-0.395h-0.638L24.344,227.488z M29.344,225.997h1.644l0.138-0.64h-1.642     L29.344,225.997z M31.407,227.488h0.639l0.086-0.415h0.012c0.039,0.217,0.15,0.501,0.631,0.501c0.789,0,1.245-0.657,1.49-1.819     c0.32-1.495-0.158-1.726-0.673-1.726c-0.364,0-0.676,0.181-0.866,0.482h-0.014l0.319-1.496h-0.677L31.407,227.488z      M32.392,225.839c0.173-0.809,0.365-1.273,0.884-1.273c0.392,0,0.463,0.314,0.268,1.225c-0.162,0.763-0.365,1.242-0.835,1.242     C32.248,227.033,32.241,226.561,32.392,225.839 M34.771,225.8c-0.225,1.047-0.059,1.773,0.877,1.773     c0.939,0,1.415-0.727,1.637-1.773c0.222-1.048,0.102-1.772-0.884-1.772C35.423,224.028,34.992,224.752,34.771,225.8      M35.448,225.8c0.159-0.748,0.358-1.271,0.847-1.271c0.494,0,0.471,0.523,0.311,1.271c-0.182,0.86-0.357,1.272-0.852,1.272     C35.266,227.073,35.266,226.661,35.448,225.8 M39.294,227.488h0.639l0.715-3.374h-0.677l-0.5,2.357     c-0.081,0.376-0.384,0.562-0.673,0.562c-0.286,0-0.433-0.123-0.352-0.497l0.517-2.422h-0.677l-0.502,2.357     c-0.183,0.87,0.105,1.103,0.607,1.103c0.374,0,0.733-0.183,0.965-0.484h0.02L39.294,227.488z M40.742,227.488h0.677l0.952-4.475     h-0.676L40.742,227.488z M43.95,227.488h0.639l0.952-4.475h-0.68l-0.317,1.497h-0.014c-0.062-0.302-0.299-0.482-0.664-0.482     c-0.511,0-1.087,0.231-1.407,1.727c-0.247,1.162-0.071,1.816,0.717,1.816c0.48,0,0.712-0.281,0.844-0.502h0.013L43.95,227.488z      M44.299,225.839c-0.155,0.722-0.361,1.193-0.824,1.193c-0.469,0-0.467-0.479-0.305-1.242c0.193-0.91,0.399-1.225,0.786-1.225     C44.476,224.566,44.471,225.031,44.299,225.839 M48.05,225.888l0.075-0.358c0.199-0.939,0.068-1.502-0.87-1.502     c-1.059,0-1.447,0.938-1.635,1.823c-0.331,1.559,0.316,1.723,0.869,1.723c0.734,0,1.283-0.471,1.44-1.216H47.29     c-0.042,0.199-0.215,0.752-0.7,0.752c-0.503,0-0.44-0.574-0.343-1.027l0.04-0.194H48.05L48.05,225.888z M46.385,225.424     l0.017-0.067c0.091-0.44,0.314-0.864,0.746-0.864c0.383,0,0.451,0.327,0.362,0.751l-0.039,0.182L46.385,225.424L46.385,225.424z      M48.392,227.488h0.677l0.428-2.021c0.133-0.625,0.533-0.762,0.839-0.762c0.116,0,0.227,0.024,0.276,0.038l0.146-0.689     c-0.042-0.013-0.083-0.024-0.158-0.024c-0.382,0-0.684,0.237-0.914,0.613h-0.011l0.113-0.527h-0.68L48.392,227.488z      M50.525,227.488h0.674l0.718-3.374h-0.678L50.525,227.488z M51.341,223.637h0.676l0.145-0.676h-0.678L51.341,223.637z      M52.008,227.488h0.678l0.482-2.266c0.091-0.439,0.402-0.658,0.677-0.658c0.342,0,0.436,0.166,0.342,0.608l-0.491,2.312h0.675     l0.541-2.547c0.145-0.679-0.129-0.911-0.642-0.911c-0.377,0-0.736,0.181-0.968,0.481h-0.021l0.083-0.396h-0.64L52.008,227.488z      M55.125,227.776c-0.058,0.276-0.072,0.863,0.932,0.863c0.908,0,1.366-0.493,1.538-1.314l0.681-3.211h-0.639l-0.09,0.415h-0.01     c-0.011-0.246-0.239-0.501-0.634-0.501c-0.958,0-1.285,0.995-1.44,1.734c-0.196,0.919-0.143,1.697,0.646,1.697     c0.328,0,0.678-0.17,0.864-0.462h0.011l-0.114,0.546c-0.083,0.386-0.355,0.632-0.706,0.632c-0.3,0-0.446-0.195-0.402-0.404     h-0.638V227.776z M56.154,225.693c0.132-0.624,0.322-1.129,0.811-1.129c0.471,0,0.409,0.608,0.292,1.161     c-0.113,0.532-0.312,1.197-0.836,1.197C55.92,226.922,56.035,226.27,56.154,225.693 M58.244,227.488h0.715l0.173-0.827h-0.713     L58.244,227.488z M61.703,226.257c-0.109,0.508-0.314,0.821-0.688,0.815c-0.489,0-0.462-0.527-0.305-1.272     c0.158-0.748,0.357-1.271,0.845-1.271c0.399-0.013,0.399,0.395,0.333,0.708h0.677c0.088-0.42,0.109-1.224-0.902-1.209     c-0.979,0-1.407,0.725-1.632,1.772c-0.223,1.047-0.101,1.773,0.877,1.773c0.833,0,1.217-0.51,1.432-1.316H61.703z      M62.675,227.488h0.679l0.482-2.266c0.09-0.439,0.401-0.658,0.679-0.658c0.339,0,0.435,0.166,0.34,0.608l-0.49,2.312h0.674     l0.542-2.547c0.145-0.679-0.132-0.911-0.644-0.911c-0.345,0-0.677,0.174-0.926,0.463l-0.014-0.014l0.312-1.466h-0.683     L62.675,227.488z"
   id="path123" />
		</g>
	</g>
</g>
<g
   id="g125">
	<g
   id="g127">
		<text
   transform="matrix(1 0 0 1 225.0508 41.7104)"
   fill="#231F20"
   font-family="'MyriadPro-Regular'"
   font-size="22.2648"
   id="text129">3</text>

	</g>
</g>
<g
   id="g131">
	<text
   transform="matrix(1 0 0 1 240.4023 97.1743)"
   fill="#231F20"
   font-family="'MyriadPro-Regular'"
   font-size="22.2648"
   id="text133">2</text>

</g>
<g
   id="g135">
	<polyline
   fill="none"
   stroke="#231F20"
   stroke-linecap="round"
   points="257.504,231.058 257.504,1.792 3.519,1.792 2.952,130.612     "
   id="polyline137" />
	<path
   fill="none"
   stroke="#231F20"
   d="M256.606,231.93"
   id="path139" />
</g>
<g
   id="g141">
	<polyline
   fill="none"
   stroke="#231F20"
   stroke-linecap="round"
   points="257.588,231.058 257.588,1.792 3.603,1.792 3.036,130.612     "
   id="polyline143" />
	<path
   fill="none"
   stroke="#231F20"
   d="M256.69,231.93"
   id="path145" />
</g>
<line
   fill="none"
   stroke="#231F20"
   x1="15.632"
   y1="1.792"
   x2="61.707"
   y2="1.792"
   id="line147" />
<line
   fill="none"
   stroke="#231F20"
   stroke-linecap="round"
   x1="257.588"
   y1="66.471"
   x2="257.504"
   y2="120.75"
   id="line149" />
<line
   fill="none"
   stroke="#231F20"
   stroke-linecap="round"
   x1="203.745"
   y1="62.169"
   x2="257.588"
   y2="66.471"
   id="line151" />
</svg>