<?xml version="1.0" encoding="utf-8"?>
<!-- Generator: Adobe Illustrator 15.0.0, SVG Export Plug-In . SVG Version: 6.00 Build 0)  -->
<!DOCTYPE svg PUBLIC "-//W3C//DTD SVG 1.1//EN" "http://www.w3.org/Graphics/SVG/1.1/DTD/svg11.dtd">
<svg version="1.1" id="Layer_1" xmlns="http://www.w3.org/2000/svg" xmlns:xlink="http://www.w3.org/1999/xlink" x="0px" y="0px"
	 width="210px" height="275px" viewBox="0 0 210 275" enable-background="new 0 0 210 275" xml:space="preserve">
<rect fill="#998C7F" width="210" height="275"/>
<polyline fill="#A57820" stroke="#231F20" stroke-linecap="round" points="1.875,188.857 1.875,106.723 75.625,106.191 
	91.415,118.909 91.415,188.152 "/>
<path fill="none" stroke="#231F20" d="M1.875,94.029"/>
<path fill="none" stroke="#231F20" d="M1.875,114.418"/>
<line fill="none" stroke="#231F20" x1="1.926" y1="95.255" x2="4.169" y2="95.253"/>
<line fill="none" stroke="#231F20" stroke-linecap="round" x1="4.109" y1="95.253" x2="3.938" y2="71.161"/>
<line fill="none" stroke="#231F20" x1="3.938" y1="71.161" x2="6.517" y2="67.522"/>
<line fill="none" stroke="#231F20" stroke-linecap="round" x1="6.517" y1="67.522" x2="6.517" y2="37.96"/>
<line fill="none" stroke="#231F20" x1="6.517" y1="37.96" x2="12.02" y2="37.96"/>
<line fill="none" stroke="#231F20" stroke-linecap="round" x1="12.02" y1="37.96" x2="12.02" y2="2.932"/>
<line fill="none" stroke="#231F20" stroke-linecap="round" x1="49.503" y1="2.932" x2="49.503" y2="5.81"/>
<line fill="none" stroke="#231F20" x1="49.503" y1="6.049" x2="100.676" y2="6.049"/>
<line fill="none" stroke="#231F20" stroke-linecap="round" x1="100.676" y1="6.049" x2="71.082" y2="62.886"/>
<line fill="none" stroke="#231F20" stroke-linecap="round" x1="71.082" y1="62.886" x2="95.453" y2="81.5"/>
<line fill="none" stroke="#231F20" stroke-linecap="round" x1="95.453" y1="81.5" x2="123.22" y2="81.5"/>
<line fill="none" stroke="#231F20" stroke-linecap="round" x1="123.22" y1="81.5" x2="125.593" y2="32.92"/>
<line fill="none" stroke="#231F20" stroke-linecap="round" x1="125.939" y1="32.92" x2="130.997" y2="33.161"/>
<line fill="none" stroke="#231F20" stroke-linecap="round" x1="130.997" y1="33.161" x2="130.997" y2="2.578"/>
<line fill="none" stroke="#231F20" stroke-linecap="round" x1="169.104" y1="2.578" x2="164.205" y2="51.39"/>
<line fill="none" stroke="#231F20" stroke-linecap="round" x1="164.205" y1="51.39" x2="207.734" y2="54.868"/>
<line fill="none" stroke="#231F20" stroke-linecap="round" x1="166.653" y1="108.174" x2="166.653" y2="188.152"/>
<line fill="none" stroke="#231F20" stroke-linecap="round" x1="166.653" y1="108.174" x2="207.667" y2="98.75"/>
<g>
	<line fill="none" stroke="#231F20" stroke-linecap="round" x1="1.875" y1="188.857" x2="207.209" y2="188.152"/>
</g>
<g>
	<g>
		<text transform="matrix(1 0 0 1 182.6211 149.5869)" fill="#231F20" font-family="'MyriadPro-Regular'" font-size="18">1</text>
	</g>
</g>
<g>
	<text transform="matrix(1 0 0 1 126.9512 61.8867)" fill="#231F20" font-family="'MyriadPro-Regular'" font-size="18">5</text>
</g>
<g>
	<text transform="matrix(1 0 0 1 133.0293 21.4795)" fill="#231F20" font-family="'MyriadPro-Regular'" font-size="18">4</text>
</g>
<text transform="matrix(1 0 0 1 14.624 24.9722)" fill="#231F20" font-family="'MyriadPro-Regular'" font-size="18">9</text>
<g>
	<g>
		<text transform="matrix(1 0 0 1 44.6421 23.1826)" fill="#231F20" font-family="'MyriadPro-Regular'" font-size="18">8</text>
	</g>
</g>
<g>
	<g>
		<text transform="matrix(1 0 0 1 78.541 37.187)" fill="#231F20" font-family="'MyriadPro-Regular'" font-size="18">7</text>
	</g>
</g>
<g>
	<text transform="matrix(1 0 0 1 93.4512 75.1597)" fill="#231F20" font-family="'MyriadPro-Regular'" font-size="18">6</text>
</g>
<text transform="matrix(1 0 0 1 9.0186 72.8555)" fill="#231F20" font-family="'MyriadPro-Regular'" font-size="18">10</text>
<g>
	<text transform="matrix(1 0 0 1 97.5352 242.2832)" fill="#231F20" font-family="'MyriadPro-Regular'" font-size="18">11</text>
</g>
<polygon fill="none" stroke="#231F20" stroke-linecap="round" points="141.202,272.842 77.473,261.188 77.473,201.158 
	141.202,212.812 "/>
<text transform="matrix(1 0 0 1 30.5527 152.8066)" fill="#231F20" font-family="'MyriadPro-Regular'" font-size="18">Bar</text>
<g>
	<defs>
		<rect id="SVGID_1_" x="3.639" y="166.896" width="85" height="19.078"/>
	</defs>
	<clipPath id="SVGID_2_">
		<use xlink:href="#SVGID_1_"  overflow="visible"/>
	</clipPath>
	<g clip-path="url(#SVGID_2_)">
		<g>
			<defs>
				<rect id="SVGID_3_" x="-42.838" y="49.982" width="178.5" height="252.452"/>
			</defs>
			<defs>
				<rect id="SVGID_4_" x="-42.838" y="49.982" width="178.5" height="252.452"/>
			</defs>
			<clipPath id="SVGID_5_">
				<use xlink:href="#SVGID_3_"  overflow="visible"/>
			</clipPath>
			<clipPath id="SVGID_6_" clip-path="url(#SVGID_5_)">
				<use xlink:href="#SVGID_4_"  overflow="visible"/>
			</clipPath>
			<path clip-path="url(#SVGID_6_)" fill="#FFFFFF" d="M88.639,180.36l-1.084-12.417l-0.094-1.05l-11.355,0.994l-0.945,0.084
				l-1.888,0.166c0,0,0.425,4.883,1.069,12.212l2.856,0.003l-0.841-9.629l2.842-0.248l0.864,9.88h2.857l-0.887-10.13l2.823-0.245
				l0.908,10.378L88.639,180.36z M71.025,180.348l-0.102-1.176l-0.06-0.686l-0.882-10.062l-2.835,0.249l0.785,8.957l-1.952,0.171
				l-0.968,0.085l-0.204,0.02l-0.783-8.96l-2.837,0.247l0.88,10.062l0.061,0.688l0.034,0.398L71.025,180.348z M58.996,180.34
				l-0.952-10.868l-14.191,1.242c0,0,0.318,3.63,0.843,9.616l2.856,0.003l-0.615-7.032l2.843-0.25l0.637,7.282l2.856,0.005
				l-0.658-7.535l2.82-0.249l0.683,7.786H58.996z M41.672,180.326l-0.817-9.353l-2.836,0.246l0.798,9.104L41.672,180.326z
				 M37.911,169.978l2.835-0.249l-0.169-1.93l-2.836,0.247L37.911,169.978z M35.942,180.322l-0.623-7.099l-0.061-0.686l-0.092-1.068
				l-1.069,0.094l-1.207,0.105l-3.684,0.321l-0.945,0.086l-1.89,0.164l0.708,8.075l2.855,0.001l-0.479-5.489l3.103-0.271
				l0.503,5.762L35.942,180.322z M24.204,180.314l-0.685-7.822l-2.833,0.246l0.663,7.574L24.204,180.314z M20.574,171.494
				l2.835-0.248l-0.17-1.933l-2.834,0.25L20.574,171.494z M18.472,180.31l-0.55-6.275l-0.092-1.046l-11.357,0.994l-0.943,0.082
				l-1.89,0.165c0,0,0.228,2.596,0.53,6.07l2.856,0.001l-0.304-3.483l2.843-0.249l0.326,3.735l2.858,0.002l-0.35-3.986l2.822-0.245
				l0.37,4.234L18.472,180.31z"/>
			<path clip-path="url(#SVGID_6_)" fill="#FFFFFF" d="M3.937,185.042h0.549l0.389-1.831c0.074-0.355,0.325-0.532,0.542-0.532
				c0.229,0,0.307,0.135,0.232,0.492l-0.397,1.869h0.55l0.389-1.829c0.073-0.356,0.325-0.532,0.548-0.532s0.3,0.135,0.226,0.491
				l-0.397,1.868h0.548l0.44-2.073c0.113-0.526-0.125-0.724-0.51-0.724c-0.328,0-0.562,0.153-0.776,0.415
				c-0.033-0.228-0.156-0.415-0.545-0.415c-0.259,0-0.549,0.147-0.736,0.39H4.971l0.069-0.319H4.518L3.937,185.042z M7.79,185.042
				h0.547l0.581-2.728h-0.55L7.79,185.042z M8.449,181.93h0.547l0.116-0.547H8.565L8.449,181.93z M8.991,185.042h0.547l0.389-1.831
				c0.076-0.355,0.325-0.532,0.55-0.532c0.273,0,0.351,0.135,0.273,0.492l-0.395,1.869h0.547l0.438-2.06
				c0.116-0.549-0.106-0.736-0.523-0.736c-0.302,0-0.593,0.146-0.781,0.39h-0.015l0.067-0.321H9.571L8.991,185.042z M11.552,185.042
				h0.549l0.578-2.728h-0.546L11.552,185.042z M12.213,181.93h0.547l0.119-0.547h-0.549L12.213,181.93z M12.779,185.042h0.548
				l0.388-1.831c0.077-0.355,0.326-0.532,0.544-0.532c0.227,0,0.305,0.135,0.231,0.492l-0.399,1.869h0.548l0.389-1.829
				c0.077-0.356,0.325-0.532,0.551-0.532c0.225,0,0.301,0.135,0.225,0.491l-0.396,1.868h0.547l0.441-2.073
				c0.113-0.526-0.125-0.724-0.509-0.724c-0.329,0-0.566,0.153-0.779,0.415c-0.031-0.228-0.153-0.415-0.545-0.415
				c-0.259,0-0.547,0.147-0.736,0.39h-0.016l0.067-0.319h-0.517L12.779,185.042z M17.997,185.042h0.517l0.578-2.728h-0.546
				l-0.406,1.905c-0.064,0.305-0.309,0.455-0.542,0.455c-0.233,0-0.349-0.1-0.283-0.402l0.415-1.958h-0.548l-0.404,1.905
				c-0.15,0.704,0.084,0.893,0.488,0.893c0.302,0,0.593-0.148,0.782-0.392h0.016L17.997,185.042z M19.168,185.042h0.546l0.39-1.831
				c0.074-0.355,0.326-0.532,0.543-0.532c0.226,0,0.306,0.135,0.229,0.492l-0.395,1.869h0.545l0.39-1.829
				c0.074-0.356,0.325-0.532,0.548-0.532c0.225,0,0.301,0.135,0.226,0.491l-0.396,1.868h0.546l0.441-2.073
				c0.113-0.526-0.125-0.724-0.508-0.724c-0.329,0-0.565,0.153-0.778,0.415c-0.033-0.228-0.155-0.415-0.545-0.415
				c-0.259,0-0.55,0.147-0.738,0.39h-0.013l0.067-0.319h-0.516L19.168,185.042z M23.211,183.837h1.329l0.111-0.518h-1.327
				L23.211,183.837z M24.879,185.042h0.517l0.069-0.335h0.01c0.032,0.175,0.122,0.405,0.511,0.405c0.638,0,1.006-0.532,1.204-1.471
				c0.259-1.21-0.128-1.396-0.544-1.396c-0.294,0-0.547,0.146-0.7,0.39h-0.012l0.258-1.209h-0.547L24.879,185.042z M25.675,183.709
				c0.14-0.653,0.295-1.028,0.715-1.028c0.316,0,0.374,0.253,0.216,0.989c-0.131,0.616-0.295,1.005-0.675,1.005
				C25.559,184.675,25.553,184.293,25.675,183.709 M27.599,183.678c-0.182,0.847-0.048,1.435,0.709,1.435
				c0.759,0,1.144-0.588,1.323-1.435c0.18-0.847,0.083-1.433-0.714-1.433C28.126,182.245,27.777,182.831,27.599,183.678
				 M28.146,183.678c0.129-0.604,0.289-1.028,0.685-1.028c0.399,0,0.381,0.424,0.251,1.028c-0.147,0.695-0.289,1.029-0.688,1.029
				C27.998,184.707,27.998,184.373,28.146,183.678 M31.255,185.042h0.517l0.578-2.728h-0.547l-0.404,1.905
				c-0.065,0.305-0.311,0.455-0.544,0.455c-0.231,0-0.35-0.1-0.284-0.402l0.417-1.958H30.44l-0.405,1.905
				c-0.148,0.704,0.084,0.893,0.491,0.893c0.302,0,0.593-0.148,0.781-0.392h0.016L31.255,185.042z M32.425,185.042h0.547l0.77-3.617
				h-0.547L32.425,185.042z M35.019,185.042h0.517l0.77-3.617h-0.549l-0.257,1.21h-0.011c-0.05-0.244-0.242-0.39-0.537-0.39
				c-0.413,0-0.879,0.187-1.137,1.396c-0.2,0.938-0.058,1.468,0.58,1.468c0.388,0,0.575-0.228,0.682-0.406h0.011L35.019,185.042z
				 M35.302,183.709c-0.125,0.584-0.292,0.966-0.666,0.966c-0.379,0-0.378-0.389-0.247-1.005c0.156-0.736,0.323-0.989,0.636-0.989
				C35.444,182.681,35.44,183.056,35.302,183.709 M38.333,183.749l0.061-0.29c0.161-0.759,0.055-1.214-0.704-1.214
				c-0.856,0-1.17,0.758-1.321,1.474c-0.268,1.261,0.255,1.394,0.702,1.394c0.594,0,1.037-0.381,1.165-0.983h-0.517
				c-0.034,0.161-0.173,0.607-0.565,0.607c-0.407,0-0.356-0.464-0.277-0.83l0.032-0.157H38.333L38.333,183.749z M36.987,183.374
				l0.014-0.055c0.074-0.355,0.254-0.698,0.603-0.698c0.31,0,0.365,0.265,0.293,0.606l-0.032,0.147L36.987,183.374L36.987,183.374z
				 M38.61,185.042h0.547l0.347-1.634c0.107-0.506,0.431-0.616,0.678-0.616c0.094,0,0.184,0.021,0.223,0.031l0.118-0.558
				c-0.034-0.01-0.067-0.02-0.128-0.02c-0.309,0-0.552,0.191-0.739,0.495h-0.009l0.092-0.426h-0.55L38.61,185.042z M40.334,185.042
				h0.545l0.581-2.728h-0.548L40.334,185.042z M40.994,181.93h0.547l0.117-0.547H41.11L40.994,181.93z M41.534,185.042h0.549
				l0.39-1.831c0.074-0.355,0.325-0.532,0.548-0.532c0.276,0,0.352,0.135,0.276,0.492l-0.396,1.869h0.546l0.437-2.06
				c0.117-0.549-0.104-0.736-0.519-0.736c-0.305,0-0.595,0.146-0.783,0.39h-0.017l0.067-0.321h-0.517L41.534,185.042z
				 M44.054,185.275c-0.046,0.223-0.059,0.698,0.753,0.698c0.734,0,1.104-0.399,1.244-1.063l0.551-2.596h-0.517l-0.072,0.335h-0.008
				c-0.008-0.198-0.193-0.404-0.513-0.404c-0.775,0-1.039,0.805-1.165,1.402c-0.158,0.743-0.115,1.372,0.523,1.372
				c0.265,0,0.548-0.138,0.698-0.374h0.008l-0.092,0.441c-0.067,0.312-0.287,0.511-0.57,0.511c-0.243,0-0.36-0.157-0.325-0.326
				h-0.515V185.275z M44.886,183.591c0.107-0.505,0.261-0.912,0.656-0.912c0.38,0,0.33,0.492,0.236,0.938
				c-0.091,0.43-0.252,0.968-0.676,0.968C44.697,184.585,44.789,184.058,44.886,183.591 M46.575,185.042h0.578l0.141-0.669h-0.577
				L46.575,185.042z M49.371,184.047c-0.088,0.411-0.254,0.664-0.556,0.66c-0.396,0-0.374-0.427-0.247-1.029
				c0.128-0.604,0.289-1.028,0.683-1.028c0.323-0.01,0.323,0.319,0.27,0.573h0.547c0.071-0.34,0.088-0.989-0.729-0.978
				c-0.791,0-1.137,0.586-1.319,1.433c-0.18,0.847-0.082,1.435,0.709,1.435c0.673,0,0.984-0.413,1.158-1.065H49.371z
				 M50.157,185.042h0.549l0.39-1.831c0.073-0.355,0.325-0.532,0.549-0.532c0.274,0,0.352,0.135,0.275,0.492l-0.396,1.869h0.545
				l0.438-2.06c0.117-0.549-0.106-0.736-0.52-0.736c-0.279,0-0.547,0.141-0.749,0.374l-0.012-0.011l0.253-1.186h-0.552
				L50.157,185.042z"/>
		</g>
	</g>
</g>
<g>
	<text transform="matrix(1 0 0 1 180.6211 36.4683)" fill="#231F20" font-family="'MyriadPro-Regular'" font-size="18">3</text>
</g>
<g>
	<text transform="matrix(1 0 0 1 196.2656 79.6904)" fill="#CCCC00" font-family="'MyriadPro-Regular'" font-size="18">2</text>
</g>
<g>
	<polyline fill="none" stroke="#231F20" stroke-linecap="round" points="207.667,187.929 207.667,2.578 2.333,2.578 1.875,106.723 	
		"/>
	<path fill="none" stroke="#231F20" d="M206.941,188.634"/>
</g>
<line fill="none" stroke="#231F20" x1="12.125" y1="2.578" x2="49.375" y2="2.578"/>
<line fill="none" stroke="#CCCC00" stroke-linecap="round" x1="207.5" y1="55" x2="207.5" y2="98"/>
</svg>
